<svg width="61" height="61" viewBox="0 0 61 61" fill="none" xmlns="http://www.w3.org/2000/svg">
<g opacity="0.2">
<path d="M9.44629 20.7818L51.0099 20.7818V11.3355C51.0099 10.8345 50.8109 10.3539 50.4566 9.99964C50.1023 9.64534 49.6217 9.44629 49.1207 9.44629L11.3355 9.44629C10.8345 9.44629 10.3539 9.64534 9.99964 9.99964C9.64534 10.3539 9.44629 10.8345 9.44629 11.3355L9.44629 20.7818Z" fill="#F1B462"/>
</g>
<path d="M49.1203 7.55708L43.4525 7.55708V5.66782C43.4525 5.16676 43.2534 4.68622 42.8991 4.33191C42.5448 3.97761 42.0643 3.77856 41.5632 3.77856C41.0622 3.77856 40.5816 3.97761 40.2273 4.33191C39.873 4.68622 39.674 5.16676 39.674 5.66782V7.55708L20.7814 7.55708V5.66782C20.7814 5.16676 20.5824 4.68622 20.2281 4.33191C19.8738 3.97761 19.3932 3.77856 18.8922 3.77856C18.3911 3.77856 17.9106 3.97761 17.5563 4.33191C17.202 4.68622 17.0029 5.16676 17.0029 5.66782V7.55708L11.3352 7.55708C10.3334 7.55822 9.37297 7.95668 8.66461 8.66504C7.95625 9.3734 7.55779 10.3338 7.55664 11.3356L7.55664 49.1207C7.55779 50.1225 7.95625 51.0829 8.66461 51.7912C9.37297 52.4996 10.3334 52.8981 11.3352 52.8992L49.1203 52.8992C50.122 52.8981 51.0824 52.4996 51.7908 51.7912C52.4992 51.0829 52.8976 50.1225 52.8988 49.1207L52.8988 11.3356C52.8976 10.3338 52.4992 9.3734 51.7908 8.66504C51.0824 7.95668 50.122 7.55822 49.1203 7.55708ZM17.0029 11.3356V13.2248C17.0029 13.7259 17.202 14.2064 17.5563 14.5607C17.9106 14.9151 18.3911 15.1141 18.8922 15.1141C19.3932 15.1141 19.8738 14.9151 20.2281 14.5607C20.5824 14.2064 20.7814 13.7259 20.7814 13.2248V11.3356L39.674 11.3356V13.2248C39.674 13.7259 39.873 14.2064 40.2273 14.5607C40.5816 14.9151 41.0622 15.1141 41.5632 15.1141C42.0643 15.1141 42.5448 14.9151 42.8991 14.5607C43.2534 14.2064 43.4525 13.7259 43.4525 13.2248V11.3356L49.1203 11.3356L49.1207 18.8926L11.3352 18.8926L11.3352 11.3356L17.0029 11.3356ZM49.1203 49.1207L11.3352 49.1207L11.3352 22.6711L49.121 22.6711L49.1226 49.1207H49.1203Z" fill="#F1B462"/>
<path d="M27.7193 34.0255L29.8139 31.4075C30.0362 31.1296 30.1755 30.7946 30.2157 30.441C30.256 30.0874 30.1955 29.7296 30.0414 29.4089C29.8872 29.0882 29.6456 28.8175 29.3443 28.6281C29.0431 28.4386 28.6944 28.3381 28.3386 28.3381L21.7262 28.3381C21.2251 28.3381 20.7446 28.5372 20.3903 28.8915C20.036 29.2458 19.8369 29.7263 19.8369 30.2274C19.8369 30.7285 20.036 31.209 20.3903 31.5633C20.7446 31.9176 21.2251 32.1166 21.7262 32.1166H24.4077L23.0848 33.7704C22.8625 34.0483 22.7232 34.3833 22.6829 34.7369C22.6427 35.0905 22.7031 35.4483 22.8573 35.769C23.0114 36.0898 23.253 36.3604 23.5543 36.5499C23.8556 36.7393 24.2042 36.8398 24.5601 36.8398C24.8707 36.8398 25.1766 36.9164 25.4505 37.0628C25.7245 37.2092 25.9582 37.4209 26.1308 37.6792C26.3034 37.9374 26.4097 38.2343 26.4402 38.5434C26.4707 38.8526 26.4246 39.1645 26.3058 39.4515C26.187 39.7385 25.9992 39.9918 25.7592 40.189C25.5191 40.3862 25.2342 40.5211 24.9295 40.5818C24.6249 40.6426 24.3099 40.6272 24.0126 40.5372C23.7153 40.4472 23.4448 40.2853 23.225 40.0657C22.8705 39.7116 22.3898 39.5129 21.8888 39.5132C21.3877 39.5134 20.9073 39.7128 20.5532 40.0673C20.1991 40.4218 20.0003 40.9025 20.0006 41.4035C20.0009 41.9046 20.2002 42.385 20.5547 42.7391C21.1138 43.2979 21.7837 43.7335 22.5212 44.018C23.2587 44.3025 24.0475 44.4296 24.837 44.391C25.6266 44.3525 26.3993 44.1492 27.1056 43.7942C27.8119 43.4393 28.4361 42.9405 28.9381 42.3299C29.4402 41.7193 29.8089 41.0105 30.0207 40.2489C30.2324 39.4874 30.2825 38.6899 30.1678 37.9078C30.053 37.1257 29.7759 36.3763 29.3542 35.7077C28.9325 35.0391 28.3756 34.4661 27.7193 34.0255Z" fill="#F1B462"/>
<path d="M38.6299 28.5376C38.3161 28.3805 37.9648 28.314 37.6154 28.3455C37.2659 28.377 36.9321 28.5053 36.6515 28.7159L32.873 31.5498C32.4721 31.8504 32.2071 32.298 32.1362 32.794C32.0653 33.29 32.1944 33.7939 32.495 34.1948C32.7956 34.5957 33.2432 34.8607 33.7392 34.9316C34.2352 35.0025 34.7391 34.8734 35.14 34.5728L35.8958 34.0059V42.5075C35.8958 43.0086 36.0948 43.4892 36.4491 43.8435C36.8034 44.1978 37.2839 44.3968 37.785 44.3968C38.2861 44.3968 38.7666 44.1978 39.1209 43.8435C39.4752 43.4892 39.6743 43.0086 39.6743 42.5075V30.2274C39.6743 29.8765 39.5766 29.5326 39.3921 29.2342C39.2076 28.9357 38.9437 28.6945 38.6299 28.5376Z" fill="#F1B462"/>
</svg>
