<svg width="61" height="61" viewBox="0 0 61 61" fill="none" xmlns="http://www.w3.org/2000/svg">
<g opacity="0.2">
<path d="M38.7159 18.9152C39.3526 20.7284 39.6769 22.6366 39.6748 24.5584C39.6748 29.068 37.8834 33.3929 34.6946 36.5816C31.5059 39.7703 27.1811 41.5617 22.6715 41.5617H21.75V41.5625C22.9233 44.8776 25.0953 47.7476 27.967 49.7774C30.8386 51.8073 34.2689 52.8973 37.7855 52.8973H53.3719C53.7477 52.8973 54.1081 52.748 54.3738 52.4823C54.6395 52.2165 54.7888 51.8561 54.7888 51.4803V35.8939C54.7888 31.5452 53.1225 27.3617 50.1327 24.2038C47.1429 21.0458 43.0568 19.1534 38.7146 18.9156L38.7159 18.9152Z" fill="#F1B462"/>
</g>
<path d="M40.044 17.14C38.3348 13.1363 35.2953 9.84583 31.4396 7.82493C27.5839 5.80403 23.1486 5.17676 18.8837 6.04919C14.6188 6.92161 10.786 9.2402 8.03361 12.6129C5.28121 15.9855 3.77804 20.2052 3.77832 24.5585L3.77832 40.1448C3.7793 41.0214 4.12795 41.8618 4.74777 42.4816C5.36759 43.1014 6.20796 43.45 7.08452 43.451L20.4668 43.451C21.9413 46.8178 24.3641 49.6825 27.4393 51.6954C30.5146 53.7083 34.1094 54.7824 37.7849 54.7866L53.3713 54.7866C54.2478 54.7856 55.0882 54.4369 55.708 53.8171C56.3278 53.1973 56.6765 52.3569 56.6775 51.4804L56.6775 35.894C56.6785 31.2746 54.9863 26.8151 51.9211 23.3592C48.856 19.9032 44.6304 17.6906 40.044 17.14ZM7.55683 24.5585C7.55683 21.5692 8.44325 18.647 10.104 16.1616C11.7648 13.6761 14.1253 11.7389 16.887 10.5949C19.6487 9.45097 22.6876 9.15166 25.6195 9.73484C28.5513 10.318 31.2444 11.7575 33.3581 13.8712C35.4719 15.985 36.9113 18.678 37.4945 21.6099C38.0777 24.5417 37.7784 27.5806 36.6344 30.3424C35.4905 33.1041 33.5533 35.4646 31.0678 37.1253C28.5823 38.7861 25.6602 39.6725 22.6709 39.6725L7.55683 39.6725L7.55683 24.5585ZM52.899 51.008L37.7849 51.008C35.1123 51.0048 32.4882 50.2946 30.1788 48.9493C27.8695 47.6041 25.9572 45.6719 24.636 43.3487C27.2238 43.0808 29.7283 42.2808 31.9921 40.9987C34.2559 39.7167 36.2302 37.9804 37.7909 35.8988C39.3516 33.8173 40.465 31.4356 41.0613 28.9032C41.6575 26.3707 41.7236 23.7424 41.2554 21.1832C44.5698 21.9648 47.5231 23.8428 49.6365 26.513C51.7499 29.1831 52.8995 32.4887 52.899 35.894L52.899 51.008Z" fill="#F1B462"/>
</svg>
