<svg width="61" height="61" viewBox="0 0 61 61" fill="none" xmlns="http://www.w3.org/2000/svg">
<path d="M14.7263 20.152C17.7228 20.152 20.1519 17.7229 20.1519 14.7265C20.1519 11.73 17.7228 9.3009 14.7263 9.3009C11.7299 9.3009 9.30078 11.73 9.30078 14.7265C9.30078 17.7229 11.7299 20.152 14.7263 20.152Z" fill="#F1B462"/>
<path d="M18.6015 40.3041L18.6015 30.228C18.6015 27.9237 19.5238 25.8333 21.0151 24.2979C20.1183 23.6437 19.0185 23.2523 17.8264 23.2523L11.6257 23.2523C8.63394 23.2523 6.2002 25.6861 6.2002 28.6779L6.2002 34.8785C6.2002 35.1723 6.36606 35.4404 6.62881 35.5722L9.33384 36.9247L10.0771 47.3356C10.1066 47.7409 10.4445 48.0549 10.8507 48.0549H18.6015C19.0076 48.0549 19.3455 47.7409 19.375 47.3348L19.7346 42.2983C19.0495 41.8868 18.6015 41.138 18.6015 40.3041Z" fill="#F1B462"/>
<path d="M45.7293 20.152C48.7257 20.152 51.1548 17.7229 51.1548 14.7265C51.1548 11.73 48.7257 9.3009 45.7293 9.3009C42.7328 9.3009 40.3037 11.73 40.3037 14.7265C40.3037 17.7229 42.7328 20.152 45.7293 20.152Z" fill="#F1B462"/>
<path d="M41.854 40.3041L41.854 30.228C41.854 27.9237 40.9317 25.8333 39.4404 24.2979C40.3372 23.6437 41.437 23.2523 42.6291 23.2523L48.8297 23.2523C51.8215 23.2523 54.2553 25.6861 54.2553 28.6779V34.8785C54.2553 35.1723 54.0894 35.4404 53.8267 35.5722L51.1216 36.9247L50.3783 47.3356C50.3489 47.7409 50.011 48.0549 49.6048 48.0549H41.854C41.4479 48.0549 41.1099 47.7409 41.0805 47.3348L40.7209 42.2983C41.406 41.8868 41.854 41.138 41.854 40.3041Z" fill="#F1B462"/>
<path d="M33.3287 23.2523L27.1281 23.2523C23.2821 23.2523 20.1523 26.3821 20.1523 30.228L20.1523 40.3041C20.1523 40.6738 20.4128 40.9916 20.7755 41.0636L24.0665 41.7217L24.8044 53.5285C24.8299 53.9369 25.1687 54.2555 25.5779 54.2555H34.8788C35.2881 54.2555 35.6268 53.9369 35.6524 53.5285L36.3903 41.7225L39.6812 41.0644C40.044 40.9916 40.3044 40.6738 40.3044 40.3041V30.228C40.3044 26.3821 37.1746 23.2523 33.3287 23.2523Z" fill="#F1B462"/>
<path d="M30.2277 20.1521C34.0736 20.1521 37.2034 17.0223 37.2034 13.1764C37.2034 9.33045 34.0736 6.20068 30.2277 6.20068C26.3817 6.20068 23.252 9.33045 23.252 13.1764C23.252 17.0223 26.3817 20.1521 30.2277 20.1521Z" fill="#F1B462"/>
</svg>
