<svg width="61" height="61" viewBox="0 0 61 61" fill="none" xmlns="http://www.w3.org/2000/svg">
<g opacity="0.2">
<path d="M30.5806 34.3295C36.8411 34.3295 41.9162 29.2544 41.9162 22.994C41.9162 16.7335 36.8411 11.6584 30.5806 11.6584C24.3202 11.6584 19.2451 16.7335 19.2451 22.994C19.2451 29.2544 24.3202 34.3295 30.5806 34.3295Z" fill="#F1B462"/>
</g>
<path d="M51.3625 22.994C51.3644 19.4917 50.4813 16.0458 48.795 12.9762C47.1087 9.90664 44.6741 7.31301 41.7171 5.43624C38.7602 3.55946 35.3769 2.46042 31.8815 2.2412C28.3861 2.02197 24.892 2.68967 21.7237 4.18228C18.5555 5.67489 15.8158 7.94399 13.7592 10.7788C11.7027 13.6136 10.3959 16.9222 9.96023 20.3973C9.5246 23.8723 9.97426 27.4011 11.2675 30.6559C12.5607 33.9106 14.6554 36.7858 17.3572 39.0143L17.3572 57.0006C17.3572 57.3226 17.4395 57.6394 17.5963 57.9207C17.7531 58.202 17.9793 58.4385 18.2532 58.6078C18.5272 58.7771 18.8399 58.8736 19.1616 58.888C19.4834 58.9025 19.8035 58.8344 20.0915 58.6903L30.5804 53.4451L41.0728 58.6905C41.3608 58.8345 41.6809 58.9024 42.0026 58.8879C42.3243 58.8735 42.6369 58.777 42.9109 58.6077C43.1848 58.4383 43.4109 58.2018 43.5677 57.9206C43.7245 57.6393 43.8068 57.3226 43.8068 57.0006L43.8068 39.012C46.1701 37.0649 48.0732 34.619 49.3795 31.8496C50.6858 29.0802 51.363 26.056 51.3625 22.994ZM13.5773 22.994C13.5773 19.631 14.5746 16.3436 16.4429 13.5475C18.3113 10.7513 20.9668 8.57192 24.0738 7.28498C27.1807 5.99804 30.5995 5.66132 33.8978 6.3174C37.1961 6.97347 40.2258 8.59288 42.6038 10.9708C44.9817 13.3488 46.6012 16.3785 47.2572 19.6768C47.9133 22.9751 47.5766 26.3939 46.2896 29.5009C45.0027 32.6078 42.8233 35.2634 40.0272 37.1317C37.231 39.0001 33.9436 39.9973 30.5806 39.9973C26.0726 39.9922 21.7507 38.1992 18.5631 35.0115C15.3755 31.8239 13.5824 27.502 13.5773 22.994ZM40.0283 53.9439L31.4249 49.6429C31.1626 49.5118 30.8733 49.4435 30.5801 49.4436C30.2868 49.4436 29.9975 49.5119 29.7352 49.643L21.1357 53.9435L21.1357 41.5028C24.0604 42.997 27.2979 43.776 30.5822 43.7758C33.8665 43.7756 37.1038 42.9961 40.0283 41.5014V53.9439Z" fill="#F1B462"/>
<path d="M30.5803 36.2187C33.1959 36.2187 35.7528 35.4431 37.9276 33.99C40.1024 32.5368 41.7974 30.4714 42.7984 28.0549C43.7993 25.6384 44.0612 22.9793 43.5509 20.4139C43.0407 17.8486 41.7811 15.4921 39.9316 13.6426C38.0821 11.7931 35.7256 10.5336 33.1603 10.0233C30.5949 9.513 27.9359 9.7749 25.5193 10.7758C23.1028 11.7768 21.0374 13.4719 19.5842 15.6467C18.1311 17.8215 17.3555 20.3783 17.3555 22.994C17.3594 26.5002 18.754 29.8617 21.2333 32.3409C23.7126 34.8202 27.074 36.2148 30.5803 36.2187ZM30.5803 13.5477C32.4486 13.5477 34.2749 14.1017 35.8283 15.1397C37.3818 16.1776 38.5925 17.6529 39.3075 19.379C40.0224 21.1051 40.2095 23.0044 39.845 24.8368C39.4805 26.6692 38.5809 28.3524 37.2598 29.6735C35.9387 30.9946 34.2555 31.8942 32.4231 32.2587C30.5907 32.6232 28.6914 32.4361 26.9653 31.7212C25.2392 31.0062 23.7639 29.7955 22.726 28.242C21.688 26.6886 21.134 24.8623 21.134 22.994C21.1368 20.4895 22.133 18.0885 23.9039 16.3176C25.6748 14.5467 28.0758 13.5505 30.5803 13.5477Z" fill="#F1B462"/>
</svg>
