<svg width="61" height="61" viewBox="0 0 61 61" fill="none" xmlns="http://www.w3.org/2000/svg">
<g opacity="0.2">
<path d="M55.1424 15.114L55.1424 45.3421C55.1424 45.8431 54.9433 46.3237 54.589 46.678C54.2347 47.0323 53.7542 47.2313 53.2531 47.2313L38.1391 47.2313C36.1348 47.2313 34.2126 48.0275 32.7954 49.4447C31.3782 50.8619 30.582 52.7841 30.582 54.7883L30.582 20.7818C30.582 18.7775 31.3782 16.8553 32.7954 15.4381C34.2126 14.0209 36.1348 13.2247 38.1391 13.2247L53.2531 13.2247C53.7542 13.2247 54.2347 13.4238 54.589 13.7781C54.9433 14.1324 55.1424 14.6129 55.1424 15.114Z" fill="#F1B462"/>
</g>
<path d="M53.2525 11.3356L38.1384 11.3356C36.6719 11.3356 35.2256 11.677 33.9139 12.3328C32.6023 12.9887 31.4613 13.9409 30.5814 15.1141C29.7015 13.9409 28.5606 12.9887 27.2489 12.3328C25.9372 11.677 24.4909 11.3356 23.0244 11.3356L7.91035 11.3356C6.90822 11.3356 5.94714 11.7337 5.23854 12.4423C4.52993 13.1509 4.13184 14.112 4.13184 15.1141L4.13184 45.3422C4.13184 46.3443 4.52993 47.3054 5.23854 48.014C5.94714 48.7226 6.90822 49.1207 7.91035 49.1207L23.0244 49.1207C24.5276 49.1207 25.9692 49.7178 27.0321 50.7807C28.095 51.8436 28.6922 53.2853 28.6922 54.7884C28.6922 55.2895 28.8912 55.7701 29.2455 56.1244C29.5998 56.4787 30.0803 56.6777 30.5814 56.6777C31.0825 56.6777 31.563 56.4787 31.9173 56.1244C32.2716 55.7701 32.4707 55.2895 32.4707 54.7884C32.4707 53.2853 33.0678 51.8436 34.1307 50.7807C35.1936 49.7178 36.6352 49.1207 38.1384 49.1207L53.2525 49.1207C54.2546 49.1207 55.2157 48.7226 55.9243 48.014C56.6329 47.3054 57.031 46.3443 57.031 45.3422L57.031 15.1141C57.031 14.112 56.6329 13.1509 55.9243 12.4423C55.2157 11.7337 54.2546 11.3356 53.2525 11.3356ZM23.0244 45.3422L7.91035 45.3422L7.91035 15.1141L23.0244 15.1141C24.5276 15.1141 25.9692 15.7112 27.0321 16.7741C28.095 17.837 28.6922 19.2787 28.6922 20.7818L28.6922 47.2314C27.0586 46.0022 25.0688 45.3389 23.0244 45.3422ZM53.2525 45.3422L38.1384 45.3422C36.094 45.3389 34.1042 46.0022 32.4707 47.2314L32.4707 20.7818C32.4707 19.2787 33.0678 17.837 34.1307 16.7741C35.1936 15.7112 36.6352 15.1141 38.1384 15.1141L53.2525 15.1141L53.2525 45.3422ZM38.1384 20.7818L47.5847 20.7818C48.0858 20.7818 48.5663 20.9809 48.9206 21.3352C49.2749 21.6895 49.474 22.17 49.474 22.6711C49.474 23.1722 49.2749 23.6527 48.9206 24.007C48.5663 24.3613 48.0858 24.5604 47.5847 24.5604L38.1384 24.5604C37.6374 24.5604 37.1568 24.3613 36.8025 24.007C36.4482 23.6527 36.2492 23.1722 36.2492 22.6711C36.2492 22.17 36.4482 21.6895 36.8025 21.3352C37.1568 20.9809 37.6374 20.7818 38.1384 20.7818ZM49.474 30.2281C49.474 30.7292 49.2749 31.2097 48.9206 31.564C48.5663 31.9183 48.0858 32.1174 47.5847 32.1174L38.1384 32.1174C37.6374 32.1174 37.1568 31.9183 36.8025 31.564C36.4482 31.2097 36.2492 30.7292 36.2492 30.2281C36.2492 29.7271 36.4482 29.2465 36.8025 28.8922C37.1568 28.5379 37.6374 28.3389 38.1384 28.3389L47.5847 28.3389C48.0858 28.3389 48.5663 28.5379 48.9206 28.8922C49.2749 29.2465 49.474 29.7271 49.474 30.2281ZM49.474 37.7851C49.474 38.2862 49.2749 38.7668 48.9206 39.1211C48.5663 39.4754 48.0858 39.6744 47.5847 39.6744L38.1384 39.6744C37.6374 39.6744 37.1568 39.4754 36.8025 39.1211C36.4482 38.7668 36.2492 38.2862 36.2492 37.7851C36.2492 37.2841 36.4482 36.8035 36.8025 36.4492C37.1568 36.0949 37.6374 35.8959 38.1384 35.8959L47.5847 35.8959C48.0858 35.8959 48.5663 36.0949 48.9206 36.4492C49.2749 36.8035 49.474 37.2841 49.474 37.7851Z" fill="#F1B462"/>
</svg>
