<svg width="61" height="61" viewBox="0 0 61 61" fill="none" xmlns="http://www.w3.org/2000/svg">
<g opacity="0.2">
<path d="M42.5079 47.2314C46.1598 47.2314 49.1203 44.2709 49.1203 40.619C49.1203 36.9671 46.1598 34.0066 42.5079 34.0066C38.856 34.0066 35.8955 36.9671 35.8955 40.619C35.8955 44.2709 38.856 47.2314 42.5079 47.2314Z" fill="#F1B462"/>
</g>
<g opacity="0.2">
<path d="M12.2804 54.7884C15.9323 54.7884 18.8928 51.8279 18.8928 48.176C18.8928 44.5241 15.9323 41.5636 12.2804 41.5636C8.62844 41.5636 5.66797 44.5241 5.66797 48.176C5.66797 51.8279 8.62844 54.7884 12.2804 54.7884Z" fill="#F1B462"/>
</g>
<path d="M50.2828 6.06787C50.0565 5.89118 49.7929 5.76839 49.512 5.70883C49.2312 5.64927 48.9405 5.6545 48.6619 5.72413L18.4339 13.2811C18.0251 13.3833 17.6622 13.6192 17.4029 13.9513C17.1437 14.2834 17.0028 14.6927 17.0028 15.114L17.0028 41.111C15.4272 40.0586 13.545 39.5629 11.6554 39.7026C9.76576 39.8424 7.97702 40.6096 6.57333 41.8824C5.16965 43.1551 4.23153 44.8605 3.90801 46.7274C3.5845 48.5944 3.89414 50.516 4.78774 52.1868C5.68135 53.8577 7.10767 55.182 8.84011 55.9494C10.5725 56.7168 12.5118 56.8833 14.3496 56.4224C16.1875 55.9615 17.8187 54.8996 18.984 53.4055C20.1493 51.9114 20.7819 50.0708 20.7814 48.176L20.7814 16.5891L47.2309 9.97668L47.2309 33.554C45.6553 32.5016 43.7731 32.0059 41.8835 32.1456C39.9938 32.2854 38.2051 33.0526 36.8014 34.3254C35.3977 35.5981 34.4596 37.3034 34.1361 39.1704C33.8126 41.0374 34.1222 42.9589 35.0158 44.6298C35.9094 46.3006 37.3358 47.625 39.0682 48.3924C40.8006 49.1598 42.7398 49.3262 44.5777 48.8653C46.4156 48.4044 48.0468 47.3426 49.2121 45.8485C50.3774 44.3544 51.01 42.5138 51.0094 40.619L51.0094 7.55699C51.0095 7.26988 50.944 6.98653 50.8181 6.7285C50.6922 6.47047 50.5091 6.24453 50.2828 6.06787ZM12.2797 52.8991C11.3456 52.8991 10.4324 52.6221 9.65567 52.1031C8.87895 51.5841 8.27358 50.8465 7.91609 49.9835C7.55861 49.1204 7.46508 48.1707 7.64732 47.2545C7.82956 46.3383 8.2794 45.4968 8.93994 44.8362C9.60049 44.1757 10.4421 43.7258 11.3583 43.5436C12.2745 43.3614 13.2241 43.4549 14.0872 43.8124C14.9502 44.1699 15.6879 44.7752 16.2069 45.552C16.7258 46.3287 17.0028 47.2418 17.0028 48.176C17.0015 49.4282 16.5034 50.6287 15.6179 51.5142C14.7325 52.3997 13.5319 52.8977 12.2797 52.8991ZM42.5078 45.3421C41.5736 45.3421 40.6605 45.0651 39.8838 44.5461C39.107 44.0271 38.5017 43.2895 38.1442 42.4264C37.7867 41.5634 37.6932 40.6137 37.8754 39.6975C38.0577 38.7813 38.5075 37.9397 39.168 37.2792C39.8286 36.6187 40.6702 36.1688 41.5864 35.9866C42.5026 35.8043 43.4522 35.8979 44.3153 36.2554C45.1783 36.6128 45.916 37.2182 46.4349 37.9949C46.9539 38.7716 47.2309 39.6848 47.2309 40.619C47.2295 41.8712 46.7315 43.0717 45.846 43.9572C44.9606 44.8426 43.76 45.3407 42.5078 45.3421Z" fill="#F1B462"/>
</svg>
